<?xml version="1.0" encoding="UTF-8"?>
<!DOCTYPE svg PUBLIC "-//W3C//DTD SVG 1.1//EN" "http://www.w3.org/Graphics/SVG/1.1/DTD/svg11.dtd">
<svg xmlns="http://www.w3.org/2000/svg" version="1.1" width="1464px" height="1462px" style="shape-rendering:geometricPrecision; text-rendering:geometricPrecision; image-rendering:optimizeQuality; fill-rule:evenodd; clip-rule:evenodd" xmlns:xlink="http://www.w3.org/1999/xlink">
<g><path style="opacity:0.989" fill="#000000" d="M 1463.5,692.5 C 1463.5,719.167 1463.5,745.833 1463.5,772.5C 1447.81,983.709 1360.15,1157.88 1200.5,1295C 1083.61,1390.28 949.615,1445.78 798.5,1461.5C 754.5,1461.5 710.5,1461.5 666.5,1461.5C 462.995,1439.18 295.829,1350.18 165,1194.5C 25.5739,1016.94 -24.7594,816.274 14,592.5C 52.6266,407.818 146.46,258.651 295.5,145C 474.003,16.7412 671.669,-25.9255 888.5,17C 1086.13,63.7637 1240.29,171.597 1351,340.5C 1418.09,448.142 1455.59,565.475 1463.5,692.5 Z"/></g>
<g><path style="opacity:1" fill="#feb809" d="M 742.5,24.5 C 733.436,49.6237 724.102,74.6237 714.5,99.5C 699.446,99.795 684.446,100.795 669.5,102.5C 581.52,111.274 499.187,137.274 422.5,180.5C 435.56,146.989 448.226,113.322 460.5,79.5C 550.546,41.9585 644.546,23.6251 742.5,24.5 Z"/></g>
<g><path style="opacity:1" fill="#feb109" d="M 742.5,24.5 C 840.574,26.4057 934.24,47.4057 1023.5,87.5C 1014.78,110.612 1005.78,133.612 996.5,156.5C 984.384,151.05 972.051,146.05 959.5,141.5C 880.87,111.005 799.203,97.0051 714.5,99.5C 724.102,74.6237 733.436,49.6237 742.5,24.5 Z"/></g>
<g><path style="opacity:1" fill="#febe09" d="M 460.5,79.5 C 448.226,113.322 435.56,146.989 422.5,180.5C 290.828,255.972 196.995,364.638 141,506.5C 88.8497,648.5 86.0164,791.5 132.5,935.5C 119.795,969.023 106.795,1002.36 93.5,1035.5C 27.5093,893.241 9.3426,744.908 39,590.5C 82.7705,395.198 187.937,243.032 354.5,134C 388.321,112.923 423.654,94.7561 460.5,79.5 Z"/></g>
<g><path style="opacity:1" fill="#feab09" d="M 1023.5,87.5 C 1100.81,122.473 1169.48,169.806 1229.5,229.5C 1220.21,255.054 1210.54,280.387 1200.5,305.5C 1142.07,242.737 1074.07,193.071 996.5,156.5C 1005.78,133.612 1014.78,110.612 1023.5,87.5 Z"/></g>
<g><path style="opacity:1" fill="#d19208" d="M 714.5,99.5 C 799.203,97.0051 880.87,111.005 959.5,141.5C 956.932,146.525 954.932,151.859 953.5,157.5C 874.313,127.349 792.313,114.015 707.5,117.5C 692.45,117.772 677.45,118.772 662.5,120.5C 665.137,114.621 667.47,108.621 669.5,102.5C 684.446,100.795 699.446,99.795 714.5,99.5 Z"/></g>
<g><path style="opacity:1" fill="#d19908" d="M 669.5,102.5 C 667.47,108.621 665.137,114.621 662.5,120.5C 572.14,131.061 488.473,160.061 411.5,207.5C 263.406,300.568 169.573,432.901 130,604.5C 111.009,701.113 113.676,797.113 138,892.5C 139.368,898.107 141.201,903.441 143.5,908.5C 157.938,957.702 178.104,1004.37 204,1048.5C 224.323,1080.83 246.823,1111.5 271.5,1140.5C 269.38,1146.18 267.047,1151.84 264.5,1157.5C 205.52,1092.76 161.52,1018.76 132.5,935.5C 86.0164,791.5 88.8497,648.5 141,506.5C 196.995,364.638 290.828,255.972 422.5,180.5C 499.187,137.274 581.52,111.274 669.5,102.5 Z"/></g>
<g><path style="opacity:1" fill="#feb109" d="M 953.5,157.5 C 965.618,162.647 977.618,167.98 989.5,173.5C 904.816,397.125 819.482,620.125 733.5,842.5C 722.238,843.718 714.738,839.051 711,828.5C 710,827.5 709,826.5 708,825.5C 707.5,814.172 707.333,802.838 707.5,791.5C 708.15,791.196 708.817,790.863 709.5,790.5C 711.09,773.873 711.757,757.206 711.5,740.5C 712.822,740.67 713.989,740.337 715,739.5C 715.667,714.167 715.667,688.833 715,663.5C 714.946,660.139 713.946,657.139 712,654.5C 711.667,650.833 711.333,647.167 711,643.5C 710.34,641.676 709.173,640.343 707.5,639.5C 703.227,632.393 697.727,626.393 691,621.5C 690.208,619.413 689.041,617.579 687.5,616C 682.955,615.293 678.622,613.96 674.5,612C 661.167,611.333 647.833,611.333 634.5,612C 633.663,613.011 633.33,614.178 633.5,615.5C 629.085,615.305 624.751,615.805 620.5,617C 619.748,617.671 619.414,618.504 619.5,619.5C 618.833,619.5 618.167,619.5 617.5,619.5C 611.896,620.931 606.229,622.098 600.5,623C 596.751,625.485 592.751,627.485 588.5,629C 581.865,629.168 575.531,630.168 569.5,632C 568.903,630.938 568.57,629.772 568.5,628.5C 570.449,623.586 571.449,618.419 571.5,613C 570.896,603.821 569.062,594.987 566,586.5C 556.763,579.489 546.263,576.823 534.5,578.5C 533.127,578.657 531.793,578.49 530.5,578C 589.371,424.428 648.371,270.928 707.5,117.5C 792.313,114.015 874.313,127.349 953.5,157.5 Z"/></g>
<g><path style="opacity:1" fill="#feb809" d="M 707.5,117.5 C 648.371,270.928 589.371,424.428 530.5,578C 531.793,578.49 533.127,578.657 534.5,578.5C 529.942,581.871 525.442,585.537 521,589.5C 517.794,592.998 515.461,596.998 514,601.5C 513.176,618.499 516.009,634.833 522.5,650.5C 521.542,650.047 520.708,649.381 520,648.5C 517.536,641.675 515.536,634.675 514,627.5C 512.605,626.185 511.605,626.519 511,628.5C 441.584,809.59 372.084,990.59 302.5,1171.5C 291.806,1161.47 281.473,1151.14 271.5,1140.5C 246.823,1111.5 224.323,1080.83 204,1048.5C 178.104,1004.37 157.938,957.702 143.5,908.5C 146.829,897.347 150.662,886.347 155,875.5C 241.01,652.961 326.51,430.294 411.5,207.5C 488.473,160.061 572.14,131.061 662.5,120.5C 677.45,118.772 692.45,117.772 707.5,117.5 Z"/></g>
<g><path style="opacity:1" fill="#d18c08" d="M 959.5,141.5 C 972.051,146.05 984.384,151.05 996.5,156.5C 1074.07,193.071 1142.07,242.737 1200.5,305.5C 1200.83,306.167 1201.17,306.833 1201.5,307.5C 1200.5,307.47 1199.84,307.97 1199.5,309C 1197.37,313.904 1195.37,318.738 1193.5,323.5C 1165.34,293.4 1135.01,265.567 1102.5,240C 1067.28,213.722 1029.62,191.556 989.5,173.5C 977.618,167.98 965.618,162.647 953.5,157.5C 954.932,151.859 956.932,146.525 959.5,141.5 Z"/></g>
<g><path style="opacity:1" fill="#feab09" d="M 989.5,173.5 C 1029.62,191.556 1067.28,213.722 1102.5,240C 1135.01,265.567 1165.34,293.4 1193.5,323.5C 1193.5,324.167 1193.5,324.833 1193.5,325.5C 1132.15,483.19 1071.65,641.19 1012,799.5C 1016.12,802.023 1020.12,804.69 1024,807.5C 1025.63,810.128 1027.63,812.461 1030,814.5C 1031.29,816.657 1032.12,818.99 1032.5,821.5C 1031.8,827.844 1028.96,832.844 1024,836.5C 1022.87,838.345 1022.37,840.345 1022.5,842.5C 1021.5,842.5 1020.5,842.5 1019.5,842.5C 1019.63,845.367 1018.3,847.033 1015.5,847.5C 1016.74,844.75 1018.58,842.417 1021,840.5C 1021.33,838.833 1021.67,837.167 1022,835.5C 1025,833.833 1027.33,831.5 1029,828.5C 1029.62,823.777 1029.29,819.11 1028,814.5C 1026.22,812.21 1024.06,810.543 1021.5,809.5C 1012.78,799.689 1003.28,799.022 993,807.5C 991.677,810.309 990.177,812.975 988.5,815.5C 985.518,817.593 982.184,819.093 978.5,820C 977.54,821.419 976.707,822.919 976,824.5C 972.328,827.342 968.828,830.342 965.5,833.5C 961.059,834.795 956.726,836.295 952.5,838C 951.833,838.667 951.167,839.333 950.5,840C 935.504,840.5 920.504,840.667 905.5,840.5C 905.67,839.178 905.337,838.011 904.5,837C 898.969,836.22 893.635,834.887 888.5,833C 883.695,827.86 878.861,822.693 874,817.5C 869.905,811.743 866.238,805.743 863,799.5C 863.122,794.979 861.789,790.979 859,787.5C 858.667,784.167 858.333,780.833 858,777.5C 857.333,776.833 856.667,776.167 856,775.5C 855.333,756.5 855.333,737.5 856,718.5C 856.915,717.672 857.581,716.672 858,715.5C 857.641,710.238 858.975,705.571 862,701.5C 862.182,698.774 862.682,696.107 863.5,693.5C 865.317,691.584 866.484,689.251 867,686.5C 871.329,684.023 873.162,680.357 872.5,675.5C 875.73,675.439 877.563,673.772 878,670.5C 882.474,668.357 885.974,665.19 888.5,661C 891.329,660.952 893.663,659.952 895.5,658C 898.827,657.39 902.161,656.89 905.5,656.5C 905.5,655.167 905.5,653.833 905.5,652.5C 919.171,652.333 932.837,652.5 946.5,653C 947.167,653.667 947.833,654.333 948.5,655C 953.178,655.166 957.511,656.333 961.5,658.5C 966.855,660.539 971.188,664.039 974.5,669C 976.5,669.667 978.5,670.333 980.5,671C 985.26,676.099 990.593,680.432 996.5,684C 998.5,684.667 1000.5,684.667 1002.5,684C 1004.38,681.894 1006.71,680.561 1009.5,680C 1011.67,677.167 1014.17,674.667 1017,672.5C 1017.13,669.475 1018.13,666.808 1020,664.5C 1022.27,657.174 1020.1,651.841 1013.5,648.5C 1009.88,638.716 1003.22,632.216 993.5,629C 990.154,624.801 986.154,621.634 981.5,619.5C 978.367,618.099 975.367,616.266 972.5,614C 962.16,611.013 951.826,608.346 941.5,606C 932.167,605.333 922.833,605.333 913.5,606C 905.831,608.298 897.831,609.798 889.5,610.5C 889.67,611.822 889.337,612.989 888.5,614C 886.833,614.333 885.167,614.667 883.5,615C 877.008,620.152 869.675,623.485 861.5,625C 850.583,634.915 839.916,645.248 829.5,656C 830.353,658.809 829.353,660.975 826.5,662.5C 823.744,670.679 819.91,678.346 815,685.5C 814.667,688.167 814.333,690.833 814,693.5C 811.45,697.01 810.116,701.01 810,705.5C 809.333,706.167 808.667,706.833 808,707.5C 807.831,714.191 807.331,720.858 806.5,727.5C 805.354,728.145 804.354,728.978 803.5,730C 803.534,741.077 803.701,752.244 804,763.5C 805.685,769.996 806.852,776.663 807.5,783.5C 807.167,786.833 806.833,790.167 806.5,793.5C 805.914,793.709 805.414,794.043 805,794.5C 804.012,797.424 803.346,800.424 803,803.5C 800.481,808.044 798.148,812.711 796,817.5C 793.097,819.546 791.264,822.213 790.5,825.5C 786.869,826.608 783.869,828.774 781.5,832C 773.388,836.729 764.721,839.729 755.5,841C 754.672,841.915 753.672,842.581 752.5,843C 746.085,843.79 739.752,843.624 733.5,842.5C 819.482,620.125 904.816,397.125 989.5,173.5 Z"/></g>
<g><path style="opacity:1" fill="#febc09" d="M 411.5,207.5 C 326.51,430.294 241.01,652.961 155,875.5C 150.662,886.347 146.829,897.347 143.5,908.5C 141.201,903.441 139.368,898.107 138,892.5C 113.676,797.113 111.009,701.113 130,604.5C 169.573,432.901 263.406,300.568 411.5,207.5 Z"/></g>
<g><path style="opacity:1" fill="#fea509" d="M 1229.5,229.5 C 1303.01,301.053 1357.68,385.053 1393.5,481.5C 1379.73,519.475 1365.4,557.142 1350.5,594.5C 1325.19,485.527 1275.52,389.86 1201.5,307.5C 1201.17,306.833 1200.83,306.167 1200.5,305.5C 1210.54,280.387 1220.21,255.054 1229.5,229.5 Z"/></g>
<g><path style="opacity:1" fill="#d18508" d="M 1201.5,307.5 C 1275.52,389.86 1325.19,485.527 1350.5,594.5C 1364.96,661.387 1368.63,728.72 1361.5,796.5C 1361.28,793.903 1360.78,793.903 1360,796.5C 1352.16,818.52 1343.66,840.187 1334.5,861.5C 1348.89,789.937 1351.39,717.937 1342,645.5C 1341.35,639.264 1340.19,633.264 1338.5,627.5C 1320.77,525.412 1280.27,433.745 1217,352.5C 1209.27,343.282 1201.44,334.282 1193.5,325.5C 1193.5,324.833 1193.5,324.167 1193.5,323.5C 1195.37,318.738 1197.37,313.904 1199.5,309C 1199.84,307.97 1200.5,307.47 1201.5,307.5 Z"/></g>
<g><path style="opacity:1" fill="#fea509" d="M 1193.5,325.5 C 1201.44,334.282 1209.27,343.282 1217,352.5C 1280.27,433.745 1320.77,525.412 1338.5,627.5C 1262.99,823.357 1187.66,1019.36 1112.5,1215.5C 1021.71,1287.14 918.373,1329.8 802.5,1343.5C 862.304,1186.76 922.304,1030.09 982.5,873.5C 988.46,870.845 993.793,867.178 998.5,862.5C 1000.12,861.846 1001.78,861.346 1003.5,861C 1005.88,855.12 1009.88,850.62 1015.5,847.5C 1018.3,847.033 1019.63,845.367 1019.5,842.5C 1020.5,842.5 1021.5,842.5 1022.5,842.5C 1022.37,840.345 1022.87,838.345 1024,836.5C 1028.96,832.844 1031.8,827.844 1032.5,821.5C 1032.12,818.99 1031.29,816.657 1030,814.5C 1027.63,812.461 1025.63,810.128 1024,807.5C 1020.12,804.69 1016.12,802.023 1012,799.5C 1071.65,641.19 1132.15,483.19 1193.5,325.5 Z"/></g>
<g><path style="opacity:1" fill="#fe9f09" d="M 1393.5,481.5 C 1431.95,582.315 1446.45,686.648 1437,794.5C 1414.99,1000.76 1323.15,1167.6 1161.5,1295C 1128.69,1319.58 1094.03,1341.42 1057.5,1360.5C 1071.1,1323.38 1085.1,1286.38 1099.5,1249.5C 1099.38,1248.89 1099.04,1248.56 1098.5,1248.5C 1154.06,1208.94 1202.06,1161.61 1242.5,1106.5C 1310.02,1014.32 1349.69,910.984 1361.5,796.5C 1368.63,728.72 1364.96,661.387 1350.5,594.5C 1365.4,557.142 1379.73,519.475 1393.5,481.5 Z"/></g>
<g><path style="opacity:1" fill="#bf9006" d="M 600.5,627.5 C 599.992,629.233 599.159,629.566 598,628.5C 592.977,631.036 587.811,633.203 582.5,635C 576.838,636.368 571.171,636.535 565.5,635.5C 564.754,634.264 564.421,632.93 564.5,631.5C 563.5,631.5 562.5,631.5 561.5,631.5C 562.045,621.832 562.212,612.166 562,602.5C 556.425,586.563 546.258,582.729 531.5,591C 529.982,592.848 528.149,594.348 526,595.5C 524.2,602.099 522.7,608.766 521.5,615.5C 523.81,621.961 525.31,628.627 526,635.5C 531.83,645.154 536.996,655.154 541.5,665.5C 538.811,683.451 536.311,701.451 534,719.5C 531.203,732.889 528.203,746.222 525,759.5C 520.543,771.447 516.209,783.447 512,795.5C 507.526,804.579 502.86,813.579 498,822.5C 489.734,833.427 479.567,842.26 467.5,849C 461.825,849.594 456.158,850.26 450.5,851C 437.957,856.714 436.29,864.714 445.5,875C 448.688,875.755 451.855,876.589 455,877.5C 476.337,873.507 494.004,863.174 508,846.5C 515.368,836.429 521.701,825.762 527,814.5C 532.126,800.512 537.126,786.512 542,772.5C 542.389,764.142 544.056,756.142 547,748.5C 549.66,733.948 551.66,719.282 553,704.5C 555.945,692.864 558.612,681.197 561,669.5C 563.754,667.873 566.588,666.373 569.5,665C 577.167,664.667 584.833,664.333 592.5,664C 597.089,661.296 602.089,659.962 607.5,660C 608.337,658.989 608.67,657.822 608.5,656.5C 618.297,653.719 628.297,651.886 638.5,651C 646.67,650.01 654.67,650.677 662.5,653C 665.613,656.113 668.779,659.279 672,662.5C 674.375,676.736 675.041,691.07 674,705.5C 672.791,716.463 671.791,727.463 671,738.5C 669.357,743.688 668.357,749.022 668,754.5C 667.829,763.01 667.329,771.343 666.5,779.5C 666.333,762.83 666.5,746.163 667,729.5C 668.676,728.939 670.009,727.939 671,726.5C 671.487,714.166 671.987,701.833 672.5,689.5C 672.471,683.126 671.971,676.793 671,670.5C 668.998,666.658 667.498,662.658 666.5,658.5C 664.176,658.338 662.509,657.172 661.5,655C 649.167,654.333 636.833,654.333 624.5,655C 607.153,661.837 589.153,666.504 570.5,669C 568.469,671.022 566.135,672.689 563.5,674C 561.232,687.324 560.065,700.824 560,714.5C 556.555,734.95 553.055,755.283 549.5,775.5C 548.167,775.5 546.833,775.5 545.5,775.5C 543.202,783.548 542.036,791.882 542,800.5C 539.667,803.833 537.333,807.167 535,810.5C 534.606,814.864 533.272,818.864 531,822.5C 524.223,831.288 518.223,840.622 513,850.5C 505.371,858.474 497.204,865.641 488.5,872C 482.442,875.353 475.942,877.519 469,878.5C 467.831,879.009 466.998,879.842 466.5,881C 458.5,881.667 450.5,881.667 442.5,881C 440.741,878.618 438.741,876.452 436.5,874.5C 435.311,873.571 433.978,873.238 432.5,873.5C 432.5,866.5 432.5,859.5 432.5,852.5C 436.242,851.119 439.576,848.952 442.5,846C 448.196,845.83 453.862,845.33 459.5,844.5C 459.709,843.914 460.043,843.414 460.5,843C 462.833,842.667 465.167,842.333 467.5,842C 472.772,837.786 478.272,833.952 484,830.5C 484.953,828.545 486.287,826.878 488,825.5C 489.619,821.859 491.286,818.193 493,814.5C 498.201,809.587 501.534,803.587 503,796.5C 505.959,793.902 507.293,790.568 507,786.5C 510.989,777.701 514.489,768.701 517.5,759.5C 519.69,753.445 522.19,747.445 525,741.5C 525.333,736.167 525.667,730.833 526,725.5C 527.584,717.479 529.251,709.479 531,701.5C 531.928,691.293 533.094,681.126 534.5,671C 534.507,667.742 534.007,664.575 533,661.5C 530.276,658.937 528.11,655.937 526.5,652.5C 525.682,649.893 525.182,647.226 525,644.5C 523.366,640.02 521.366,635.687 519,631.5C 517.443,619.549 517.109,607.549 518,595.5C 522.135,592.037 526.302,588.537 530.5,585C 539.5,583 548.5,583 557.5,585C 560.817,588.492 564.151,591.659 567.5,594.5C 567.5,607.833 567.5,621.167 567.5,634.5C 571.182,634.665 574.848,634.499 578.5,634C 581.898,632.084 585.565,631.084 589.5,631C 592.514,627.966 596.181,626.799 600.5,627.5 Z"/></g>
<g><path style="opacity:1" fill="#b98a08" d="M 600.5,627.5 C 600.953,626.542 601.619,625.708 602.5,625C 605.576,624.654 608.576,623.988 611.5,623C 613.257,621.25 615.257,620.084 617.5,619.5C 618.167,619.5 618.833,619.5 619.5,619.5C 623.162,618.844 626.828,618.177 630.5,617.5C 632.429,617.54 634.262,617.873 636,618.5C 642.657,617.338 649.324,616.005 656,614.5C 663.644,615.962 671.31,617.295 679,618.5C 689.171,622.383 696.838,629.05 702,638.5C 703,639.167 704,639.833 705,640.5C 706.923,649.376 708.256,658.376 709,667.5C 709.667,668.833 710.333,670.167 711,671.5C 711.167,677.833 711.333,684.167 711.5,690.5C 710.03,714.128 709.196,737.794 709,761.5C 707.199,766.702 706.033,772.036 705.5,777.5C 704.072,787.968 703.239,798.634 703,809.5C 701.787,811.925 700.621,814.259 699.5,816.5C 699.5,801.833 699.5,787.167 699.5,772.5C 700.5,772.5 701.5,772.5 702.5,772.5C 703.032,764.778 704.032,757.112 705.5,749.5C 703.55,743.169 703.383,736.836 705,730.5C 705.584,715.472 706.251,700.472 707,685.5C 696.336,712.822 685.67,740.156 675,767.5C 673.142,785.812 671.642,804.145 670.5,822.5C 672.713,825.075 673.046,827.908 671.5,831C 673.509,850.024 683.509,863.024 701.5,870C 710.033,874.199 719.033,876.699 728.5,877.5C 736.2,876.942 743.866,876.108 751.5,875C 780.063,870.155 801.563,855.322 816,830.5C 818.251,829.588 820.417,828.588 822.5,827.5C 821.542,828.962 820.376,830.295 819,831.5C 818.506,833.134 818.34,834.801 818.5,836.5C 817.178,836.33 816.011,836.663 815,837.5C 811.398,843.611 807.565,849.611 803.5,855.5C 795.87,861.981 787.87,867.814 779.5,873C 768.613,875.016 757.946,877.516 747.5,880.5C 735.844,881.5 724.177,881.666 712.5,881C 701.916,877.041 691.916,872.041 682.5,866C 677.391,859.628 672.891,852.795 669,845.5C 667.739,836.748 666.572,828.081 665.5,819.5C 666.27,806.511 666.603,793.511 666.5,780.5C 666.5,780.167 666.5,779.833 666.5,779.5C 667.329,771.343 667.829,763.01 668,754.5C 668.357,749.022 669.357,743.688 671,738.5C 671.791,727.463 672.791,716.463 674,705.5C 675.041,691.07 674.375,676.736 672,662.5C 668.779,659.279 665.613,656.113 662.5,653C 654.67,650.677 646.67,650.01 638.5,651C 628.297,651.886 618.297,653.719 608.5,656.5C 608.67,657.822 608.337,658.989 607.5,660C 602.089,659.962 597.089,661.296 592.5,664C 584.833,664.333 577.167,664.667 569.5,665C 566.588,666.373 563.754,667.873 561,669.5C 558.612,681.197 555.945,692.864 553,704.5C 551.66,719.282 549.66,733.948 547,748.5C 544.056,756.142 542.389,764.142 542,772.5C 537.126,786.512 532.126,800.512 527,814.5C 521.701,825.762 515.368,836.429 508,846.5C 494.004,863.174 476.337,873.507 455,877.5C 451.855,876.589 448.688,875.755 445.5,875C 436.29,864.714 437.957,856.714 450.5,851C 456.158,850.26 461.825,849.594 467.5,849C 479.567,842.26 489.734,833.427 498,822.5C 502.86,813.579 507.526,804.579 512,795.5C 516.209,783.447 520.543,771.447 525,759.5C 528.203,746.222 531.203,732.889 534,719.5C 536.311,701.451 538.811,683.451 541.5,665.5C 536.996,655.154 531.83,645.154 526,635.5C 525.31,628.627 523.81,621.961 521.5,615.5C 522.7,608.766 524.2,602.099 526,595.5C 528.149,594.348 529.982,592.848 531.5,591C 546.258,582.729 556.425,586.563 562,602.5C 562.212,612.166 562.045,621.832 561.5,631.5C 562.5,631.5 563.5,631.5 564.5,631.5C 564.421,632.93 564.754,634.264 565.5,635.5C 571.171,636.535 576.838,636.368 582.5,635C 587.811,633.203 592.977,631.036 598,628.5C 599.159,629.566 599.992,629.233 600.5,627.5 Z"/></g>
<g><path style="opacity:1" fill="#bc8a05" d="M 1013.5,648.5 C 1020.1,651.841 1022.27,657.174 1020,664.5C 1018.13,666.808 1017.13,669.475 1017,672.5C 1014.17,674.667 1011.67,677.167 1009.5,680C 1006.71,680.561 1004.38,681.894 1002.5,684C 1000.5,684.667 998.5,684.667 996.5,684C 990.593,680.432 985.26,676.099 980.5,671C 978.5,670.333 976.5,669.667 974.5,669C 971.188,664.039 966.855,660.539 961.5,658.5C 959.575,654.992 956.575,653.659 952.5,654.5C 952.64,652.876 951.973,651.71 950.5,651C 945.897,650.889 941.564,649.889 937.5,648C 925.341,646.244 913.675,647.744 902.5,652.5C 898.405,652.808 894.405,653.641 890.5,655C 887.349,656.821 884.349,658.821 881.5,661C 877.938,665.067 873.938,668.567 869.5,671.5C 867.216,677.989 864.049,683.989 860,689.5C 860.271,694.116 858.937,698.116 856,701.5C 855.969,705.804 854.969,709.804 853,713.5C 852.818,719.897 852.152,726.23 851,732.5C 849.817,747.482 850.65,762.148 853.5,776.5C 855.114,782.644 856.28,788.977 857,795.5C 864.53,810.396 874.363,823.562 886.5,835C 889.825,834.775 892.158,836.108 893.5,839C 908.288,844.521 923.622,846.521 939.5,845C 943.564,843.111 947.897,842.111 952.5,842C 955.098,839.041 958.432,837.707 962.5,838C 965.13,835.455 968.13,833.455 971.5,832C 976.625,825.892 982.291,820.392 988.5,815.5C 990.177,812.975 991.677,810.309 993,807.5C 1003.28,799.022 1012.78,799.689 1021.5,809.5C 1021.92,812.439 1023.42,814.772 1026,816.5C 1026.67,819.5 1026.67,822.5 1026,825.5C 1023.17,829.462 1021.01,833.795 1019.5,838.5C 1013.01,845.437 1006.01,851.937 998.5,858C 996.866,858.494 995.199,858.66 993.5,858.5C 993.719,859.675 993.386,860.675 992.5,861.5C 988.903,864.677 985.236,867.677 981.5,870.5C 972.399,874.283 963.065,877.45 953.5,880C 909.757,889.073 872.591,877.907 842,846.5C 838.003,840.344 833.836,834.344 829.5,828.5C 830.922,828.709 832.255,829.209 833.5,830C 838.298,835.781 842.964,841.615 847.5,847.5C 867.343,866.662 891.176,876.662 919,877.5C 960.157,878.087 993.157,862.087 1018,829.5C 1020.51,826.181 1021.51,822.514 1021,818.5C 1018.08,814.908 1014.58,812.075 1010.5,810C 1008.17,809.333 1005.83,809.333 1003.5,810C 996.864,815.634 990.531,821.634 984.5,828C 980.65,830.761 976.983,833.761 973.5,837C 965.869,840.482 958.536,844.482 951.5,849C 935.5,849.667 919.5,849.667 903.5,849C 897.101,845.468 890.434,842.468 883.5,840C 874.249,831.752 866.082,822.585 859,812.5C 856.856,805.41 853.856,798.743 850,792.5C 847.067,777.24 844.9,761.907 843.5,746.5C 843.771,722.776 849.271,700.442 860,679.5C 862.248,676.672 864.248,673.672 866,670.5C 871.381,664.443 877.214,658.777 883.5,653.5C 889.83,649.834 896.497,647.001 903.5,645C 912.417,644.9 921.251,644.066 930,642.5C 937.125,643.693 944.291,644.526 951.5,645C 957.276,648.8 963.443,651.633 970,653.5C 973.852,657.686 978.019,661.519 982.5,665C 984.246,665.471 985.913,666.138 987.5,667C 989.539,669.374 991.872,671.374 994.5,673C 999.937,672.211 1005.1,670.378 1010,667.5C 1011.73,662.89 1011.73,658.224 1010,653.5C 1001.7,646.274 993.531,638.941 985.5,631.5C 980.683,629.59 976.016,627.424 971.5,625C 967.339,623.263 963.005,622.263 958.5,622C 954.318,618.91 949.651,616.91 944.5,616C 933.5,615.333 922.5,615.333 911.5,616C 904.319,616.844 897.652,619.177 891.5,623C 880.573,625.964 870.573,630.797 861.5,637.5C 854.542,644.959 847.375,652.292 840,659.5C 835.647,667.542 831.314,675.542 827,683.5C 815.526,714.146 811.693,745.812 815.5,778.5C 816.747,802.824 808.081,822.657 789.5,838C 783.053,841.521 776.72,845.188 770.5,849C 765.184,849.683 759.85,850.183 754.5,850.5C 743.175,849.84 731.841,849.34 720.5,849C 706.636,842.807 699.636,831.974 699.5,816.5C 700.621,814.259 701.787,811.925 703,809.5C 703.239,798.634 704.072,787.968 705.5,777.5C 705.333,794.837 705.5,812.17 706,829.5C 707.145,831.926 708.478,834.259 710,836.5C 711.129,838.141 712.629,839.141 714.5,839.5C 717.959,841.638 721.626,843.472 725.5,845C 727.81,845.497 730.143,845.663 732.5,845.5C 762.765,852.909 786.598,843.575 804,817.5C 806.915,810.879 809.582,804.212 812,797.5C 812.232,793.445 812.732,789.445 813.5,785.5C 811.064,763.547 810.897,741.547 813,719.5C 813.915,718.672 814.581,717.672 815,716.5C 815.333,712.5 815.667,708.5 816,704.5C 819.154,697.009 821.821,689.342 824,681.5C 828.395,675.61 832.061,669.276 835,662.5C 843.768,649.847 854.268,639.014 866.5,630C 873.632,626.85 880.632,623.517 887.5,620C 888.167,619 888.833,618 889.5,617C 895.748,615.045 902.082,613.378 908.5,612C 924.182,611.414 939.849,611.748 955.5,613C 956.167,613.667 956.833,614.333 957.5,615C 961.773,616.03 966.106,616.697 970.5,617C 975.314,620.426 980.648,623.093 986.5,625C 988.455,628.791 991.455,631.291 995.5,632.5C 1001.19,638.192 1007.19,643.525 1013.5,648.5 Z"/></g>
<g><path style="opacity:1" fill="#b98709" d="M 829.5,828.5 C 827.345,826.466 825.012,826.133 822.5,827.5C 820.417,828.588 818.251,829.588 816,830.5C 801.563,855.322 780.063,870.155 751.5,875C 743.866,876.108 736.2,876.942 728.5,877.5C 719.033,876.699 710.033,874.199 701.5,870C 683.509,863.024 673.509,850.024 671.5,831C 673.046,827.908 672.713,825.075 670.5,822.5C 671.642,804.145 673.142,785.812 675,767.5C 685.67,740.156 696.336,712.822 707,685.5C 706.251,700.472 705.584,715.472 705,730.5C 703.383,736.836 703.55,743.169 705.5,749.5C 704.032,757.112 703.032,764.778 702.5,772.5C 701.5,772.5 700.5,772.5 699.5,772.5C 699.5,787.167 699.5,801.833 699.5,816.5C 699.636,831.974 706.636,842.807 720.5,849C 731.841,849.34 743.175,849.84 754.5,850.5C 759.85,850.183 765.184,849.683 770.5,849C 776.72,845.188 783.053,841.521 789.5,838C 808.081,822.657 816.747,802.824 815.5,778.5C 811.693,745.812 815.526,714.146 827,683.5C 831.314,675.542 835.647,667.542 840,659.5C 847.375,652.292 854.542,644.959 861.5,637.5C 870.573,630.797 880.573,625.964 891.5,623C 897.652,619.177 904.319,616.844 911.5,616C 922.5,615.333 933.5,615.333 944.5,616C 949.651,616.91 954.318,618.91 958.5,622C 963.005,622.263 967.339,623.263 971.5,625C 976.016,627.424 980.683,629.59 985.5,631.5C 993.531,638.941 1001.7,646.274 1010,653.5C 1011.73,658.224 1011.73,662.89 1010,667.5C 1005.1,670.378 999.937,672.211 994.5,673C 991.872,671.374 989.539,669.374 987.5,667C 985.913,666.138 984.246,665.471 982.5,665C 978.019,661.519 973.852,657.686 970,653.5C 963.443,651.633 957.276,648.8 951.5,645C 944.291,644.526 937.125,643.693 930,642.5C 921.251,644.066 912.417,644.9 903.5,645C 896.497,647.001 889.83,649.834 883.5,653.5C 877.214,658.777 871.381,664.443 866,670.5C 864.248,673.672 862.248,676.672 860,679.5C 849.271,700.442 843.771,722.776 843.5,746.5C 844.9,761.907 847.067,777.24 850,792.5C 853.856,798.743 856.856,805.41 859,812.5C 866.082,822.585 874.249,831.752 883.5,840C 890.434,842.468 897.101,845.468 903.5,849C 919.5,849.667 935.5,849.667 951.5,849C 958.536,844.482 965.869,840.482 973.5,837C 976.983,833.761 980.65,830.761 984.5,828C 990.531,821.634 996.864,815.634 1003.5,810C 1005.83,809.333 1008.17,809.333 1010.5,810C 1014.58,812.075 1018.08,814.908 1021,818.5C 1021.51,822.514 1020.51,826.181 1018,829.5C 993.157,862.087 960.157,878.087 919,877.5C 891.176,876.662 867.343,866.662 847.5,847.5C 842.964,841.615 838.298,835.781 833.5,830C 832.255,829.209 830.922,828.709 829.5,828.5 Z"/></g>
<g><path style="opacity:1" fill="#c69207" d="M 981.5,619.5 C 986.154,621.634 990.154,624.801 993.5,629C 1003.22,632.216 1009.88,638.716 1013.5,648.5C 1007.19,643.525 1001.19,638.192 995.5,632.5C 991.455,631.291 988.455,628.791 986.5,625C 980.648,623.093 975.314,620.426 970.5,617C 966.106,616.697 961.773,616.03 957.5,615C 956.833,614.333 956.167,613.667 955.5,613C 939.849,611.748 924.182,611.414 908.5,612C 902.082,613.378 895.748,615.045 889.5,617C 888.833,618 888.167,619 887.5,620C 880.632,623.517 873.632,626.85 866.5,630C 854.268,639.014 843.768,649.847 835,662.5C 832.061,669.276 828.395,675.61 824,681.5C 821.821,689.342 819.154,697.009 816,704.5C 815.667,708.5 815.333,712.5 815,716.5C 814.581,717.672 813.915,718.672 813,719.5C 810.897,741.547 811.064,763.547 813.5,785.5C 812.732,789.445 812.232,793.445 812,797.5C 809.582,804.212 806.915,810.879 804,817.5C 786.598,843.575 762.765,852.909 732.5,845.5C 739.841,845.666 747.174,845.5 754.5,845C 755.167,844.333 755.833,843.667 756.5,843C 760.541,842.827 764.541,842.327 768.5,841.5C 768.977,840.522 769.643,839.689 770.5,839C 776.272,836.116 782.272,833.782 788.5,832C 791.297,828.201 794.464,824.701 798,821.5C 802.42,813.663 805.42,805.33 807,796.5C 807.915,795.672 808.581,794.672 809,793.5C 808,766.159 808.333,738.825 810,711.5C 812.702,707.591 814.035,703.258 814,698.5C 814.615,696.884 815.615,695.551 817,694.5C 816.778,690.708 818.111,687.708 821,685.5C 822.878,681.306 824.212,676.973 825,672.5C 828.521,667.631 831.188,662.297 833,656.5C 842.583,646.581 852.416,637.081 862.5,628C 864.5,627.667 866.5,627.333 868.5,627C 873.494,622.837 878.827,619.17 884.5,616C 893.254,612.934 902.254,610.6 911.5,609C 921.833,608.333 932.167,608.333 942.5,609C 955.789,611.722 968.789,615.222 981.5,619.5 Z"/></g>
<g><path style="opacity:1" fill="#c69407" d="M 707.5,639.5 C 708.861,649.574 710.694,659.574 713,669.5C 713.167,677 713.333,684.5 713.5,692C 711.617,725.156 709.617,758.323 707.5,791.5C 706.341,802.993 706.174,814.659 707,826.5C 708.478,831.448 710.978,835.781 714.5,839.5C 712.629,839.141 711.129,838.141 710,836.5C 708.478,834.259 707.145,831.926 706,829.5C 705.5,812.17 705.333,794.837 705.5,777.5C 706.033,772.036 707.199,766.702 709,761.5C 709.196,737.794 710.03,714.128 711.5,690.5C 711.333,684.167 711.167,677.833 711,671.5C 710.333,670.167 709.667,668.833 709,667.5C 708.256,658.376 706.923,649.376 705,640.5C 704,639.833 703,639.167 702,638.5C 696.838,629.05 689.171,622.383 679,618.5C 671.31,617.295 663.644,615.962 656,614.5C 649.324,616.005 642.657,617.338 636,618.5C 634.262,617.873 632.429,617.54 630.5,617.5C 626.828,618.177 623.162,618.844 619.5,619.5C 619.414,618.504 619.748,617.671 620.5,617C 624.751,615.805 629.085,615.305 633.5,615.5C 633.33,614.178 633.663,613.011 634.5,612C 647.833,611.333 661.167,611.333 674.5,612C 678.622,613.96 682.955,615.293 687.5,616C 689.041,617.579 690.208,619.413 691,621.5C 697.727,626.393 703.227,632.393 707.5,639.5 Z"/></g>
<g><path style="opacity:1" fill="#feb109" d="M 522.5,650.5 C 523.572,654.756 525.739,658.422 529,661.5C 530.536,671.782 530.87,682.115 530,692.5C 528.474,693.545 527.641,695.045 527.5,697C 526.855,704.183 526.188,711.35 525.5,718.5C 524.883,718.611 524.383,718.944 524,719.5C 524.307,725.949 522.973,731.949 520,737.5C 519.667,740.167 519.333,742.833 519,745.5C 518,746.167 517,746.833 516,747.5C 515.082,755.434 513.415,763.101 511,770.5C 508.608,773.702 507.275,777.369 507,781.5C 505.615,782.551 504.615,783.884 504,785.5C 503.614,790.507 502.281,795.174 500,799.5C 497.358,801.458 495.858,804.124 495.5,807.5C 491.229,814.28 486.729,820.947 482,827.5C 480.267,829.602 478.267,829.935 476,828.5C 474.716,829.572 474.383,830.905 475,832.5C 472.667,834.167 470.333,835.833 468,837.5C 467.517,838.448 467.351,839.448 467.5,840.5C 458.791,842.79 449.791,843.956 440.5,844C 437.044,846.199 434.377,849.032 432.5,852.5C 432.5,859.5 432.5,866.5 432.5,873.5C 434.745,879.573 439.079,883.406 445.5,885C 455.819,884.47 466.153,883.637 476.5,882.5C 478.461,880.887 480.794,879.887 483.5,879.5C 484.287,878.758 484.953,877.925 485.5,877C 490.826,876.344 494.826,873.677 497.5,869C 504.502,867.003 509.336,862.503 512,855.5C 515.412,852.258 518.579,848.925 521.5,845.5C 522.937,840.883 525.437,836.883 529,833.5C 531.351,828.799 533.684,824.132 536,819.5C 536.333,816.5 536.667,813.5 537,810.5C 538,809.833 539,809.167 540,808.5C 540.619,805.968 541.619,803.635 543,801.5C 542.771,797.121 544.104,793.454 547,790.5C 546.714,784.599 548.047,779.266 551,774.5C 551.333,770.833 551.667,767.167 552,763.5C 553,762.167 554,760.833 555,759.5C 555.333,755.833 555.667,752.167 556,748.5C 556.667,747.833 557.333,747.167 558,746.5C 558.169,739.809 558.669,733.142 559.5,726.5C 560.799,725.91 561.632,724.91 562,723.5C 562.333,716.167 562.667,708.833 563,701.5C 564.887,699.974 565.887,697.974 566,695.5C 566.333,689.167 566.667,682.833 567,676.5C 569.781,676.105 571.947,674.772 573.5,672.5C 577.459,671.673 581.459,671.173 585.5,671C 586.495,669.166 587.995,667.999 590,667.5C 597.211,666.539 604.377,665.372 611.5,664C 612.551,662.615 613.884,661.615 615.5,661C 620.142,661.038 624.475,660.038 628.5,658C 638.167,657.333 647.833,657.333 657.5,658C 662.162,661.654 665.662,666.154 668,671.5C 668.833,690.176 668.666,708.842 667.5,727.5C 666.914,727.709 666.414,728.043 666,728.5C 665.833,745.177 665.333,761.843 664.5,778.5C 663.522,778.977 662.689,779.643 662,780.5C 661.333,800.833 661.333,821.167 662,841.5C 662.667,842.167 663.333,842.833 664,843.5C 664.206,846.623 664.873,849.623 666,852.5C 668.333,854.167 670.333,856.167 672,858.5C 672.229,861.458 673.396,863.958 675.5,866C 677.641,867.308 679.641,868.808 681.5,870.5C 683.423,871.308 685.423,871.808 687.5,872C 690.695,875.435 694.695,877.601 699.5,878.5C 702.622,878.814 705.455,879.814 708,881.5C 713.669,881.994 719.169,882.66 724.5,883.5C 719.125,883.172 713.792,883.505 708.5,884.5C 711.167,885.167 713.833,885.833 716.5,886.5C 661.579,1031.24 605.912,1175.58 549.5,1319.5C 536.691,1315.56 524.024,1311.23 511.5,1306.5C 432.468,1275.83 362.801,1230.83 302.5,1171.5C 372.084,990.59 441.584,809.59 511,628.5C 511.605,626.519 512.605,626.185 514,627.5C 515.536,634.675 517.536,641.675 520,648.5C 520.708,649.381 521.542,650.047 522.5,650.5 Z"/></g>
<g><path style="opacity:1" fill="#fea109" d="M 1338.5,627.5 C 1340.19,633.264 1341.35,639.264 1342,645.5C 1351.39,717.937 1348.89,789.937 1334.5,861.5C 1320.5,923.469 1298.17,982.136 1267.5,1037.5C 1227.39,1106.63 1175.73,1165.96 1112.5,1215.5C 1187.66,1019.36 1262.99,823.357 1338.5,627.5 Z"/></g>
<g><path style="opacity:1" fill="#d6a20c" d="M 534.5,578.5 C 546.263,576.823 556.763,579.489 566,586.5C 569.062,594.987 570.896,603.821 571.5,613C 571.449,618.419 570.449,623.586 568.5,628.5C 568.57,629.772 568.903,630.938 569.5,632C 575.531,630.168 581.865,629.168 588.5,629C 592.751,627.485 596.751,625.485 600.5,623C 606.229,622.098 611.896,620.931 617.5,619.5C 615.257,620.084 613.257,621.25 611.5,623C 608.576,623.988 605.576,624.654 602.5,625C 601.619,625.708 600.953,626.542 600.5,627.5C 596.181,626.799 592.514,627.966 589.5,631C 585.565,631.084 581.898,632.084 578.5,634C 574.848,634.499 571.182,634.665 567.5,634.5C 567.5,621.167 567.5,607.833 567.5,594.5C 564.151,591.659 560.817,588.492 557.5,585C 548.5,583 539.5,583 530.5,585C 526.302,588.537 522.135,592.037 518,595.5C 517.109,607.549 517.443,619.549 519,631.5C 521.366,635.687 523.366,640.02 525,644.5C 525.182,647.226 525.682,649.893 526.5,652.5C 528.11,655.937 530.276,658.937 533,661.5C 534.007,664.575 534.507,667.742 534.5,671C 533.094,681.126 531.928,691.293 531,701.5C 529.251,709.479 527.584,717.479 526,725.5C 525.667,730.833 525.333,736.167 525,741.5C 522.19,747.445 519.69,753.445 517.5,759.5C 517.335,756.15 517.502,752.817 518,749.5C 518.667,748.167 519.667,747.167 521,746.5C 523.409,737.334 524.909,728.001 525.5,718.5C 526.188,711.35 526.855,704.183 527.5,697C 527.641,695.045 528.474,693.545 530,692.5C 530.87,682.115 530.536,671.782 529,661.5C 525.739,658.422 523.572,654.756 522.5,650.5C 516.009,634.833 513.176,618.499 514,601.5C 515.461,596.998 517.794,592.998 521,589.5C 525.442,585.537 529.942,581.871 534.5,578.5 Z"/></g>
<g><path style="opacity:1" fill="#d49b0a" d="M 902.5,652.5 C 883.307,660.525 869.473,674.192 861,693.5C 860.667,696.167 860.333,698.833 860,701.5C 859.311,702.357 858.478,703.023 857.5,703.5C 856.672,707.796 856.172,712.129 856,716.5C 855.333,717.167 854.667,717.833 854,718.5C 853.5,737.83 853.333,757.164 853.5,776.5C 850.65,762.148 849.817,747.482 851,732.5C 852.152,726.23 852.818,719.897 853,713.5C 854.969,709.804 855.969,705.804 856,701.5C 858.937,698.116 860.271,694.116 860,689.5C 864.049,683.989 867.216,677.989 869.5,671.5C 873.938,668.567 877.938,665.067 881.5,661C 884.349,658.821 887.349,656.821 890.5,655C 894.405,653.641 898.405,652.808 902.5,652.5 Z"/></g>
<g><path style="opacity:1" fill="#e7a90c" d="M 666.5,779.5 C 666.5,779.833 666.5,780.167 666.5,780.5C 664.091,792.401 663.091,804.567 663.5,817C 661.226,837.333 667.559,854.333 682.5,868C 687.837,872.059 693.504,875.559 699.5,878.5C 694.695,877.601 690.695,875.435 687.5,872C 685.423,871.808 683.423,871.308 681.5,870.5C 679.641,868.808 677.641,867.308 675.5,866C 673.396,863.958 672.229,861.458 672,858.5C 670.333,856.167 668.333,854.167 666,852.5C 664.873,849.623 664.206,846.623 664,843.5C 663.333,842.833 662.667,842.167 662,841.5C 661.333,821.167 661.333,800.833 662,780.5C 662.689,779.643 663.522,778.977 664.5,778.5C 665.333,761.843 665.833,745.177 666,728.5C 666.414,728.043 666.914,727.709 667.5,727.5C 668.666,708.842 668.833,690.176 668,671.5C 665.662,666.154 662.162,661.654 657.5,658C 647.833,657.333 638.167,657.333 628.5,658C 624.475,660.038 620.142,661.038 615.5,661C 613.884,661.615 612.551,662.615 611.5,664C 604.377,665.372 597.211,666.539 590,667.5C 587.995,667.999 586.495,669.166 585.5,671C 581.459,671.173 577.459,671.673 573.5,672.5C 571.947,674.772 569.781,676.105 567,676.5C 566.667,682.833 566.333,689.167 566,695.5C 565.887,697.974 564.887,699.974 563,701.5C 562.667,708.833 562.333,716.167 562,723.5C 561.632,724.91 560.799,725.91 559.5,726.5C 558.669,733.142 558.169,739.809 558,746.5C 557.333,747.167 556.667,747.833 556,748.5C 555.667,752.167 555.333,755.833 555,759.5C 554,760.833 553,762.167 552,763.5C 551.667,767.167 551.333,770.833 551,774.5C 548.047,779.266 546.714,784.599 547,790.5C 544.104,793.454 542.771,797.121 543,801.5C 541.619,803.635 540.619,805.968 540,808.5C 539,809.167 538,809.833 537,810.5C 536.667,813.5 536.333,816.5 536,819.5C 533.684,824.132 531.351,828.799 529,833.5C 525.437,836.883 522.937,840.883 521.5,845.5C 518.579,848.925 515.412,852.258 512,855.5C 509.336,862.503 504.502,867.003 497.5,869C 494.826,873.677 490.826,876.344 485.5,877C 484.953,877.925 484.287,878.758 483.5,879.5C 480.794,879.887 478.461,880.887 476.5,882.5C 466.153,883.637 455.819,884.47 445.5,885C 439.079,883.406 434.745,879.573 432.5,873.5C 433.978,873.238 435.311,873.571 436.5,874.5C 438.741,876.452 440.741,878.618 442.5,881C 450.5,881.667 458.5,881.667 466.5,881C 466.998,879.842 467.831,879.009 469,878.5C 475.942,877.519 482.442,875.353 488.5,872C 497.204,865.641 505.371,858.474 513,850.5C 518.223,840.622 524.223,831.288 531,822.5C 533.272,818.864 534.606,814.864 535,810.5C 537.333,807.167 539.667,803.833 542,800.5C 542.036,791.882 543.202,783.548 545.5,775.5C 546.833,775.5 548.167,775.5 549.5,775.5C 553.055,755.283 556.555,734.95 560,714.5C 560.065,700.824 561.232,687.324 563.5,674C 566.135,672.689 568.469,671.022 570.5,669C 589.153,666.504 607.153,661.837 624.5,655C 636.833,654.333 649.167,654.333 661.5,655C 662.509,657.172 664.176,658.338 666.5,658.5C 667.498,662.658 668.998,666.658 671,670.5C 671.971,676.793 672.471,683.126 672.5,689.5C 671.987,701.833 671.487,714.166 671,726.5C 670.009,727.939 668.676,728.939 667,729.5C 666.5,746.163 666.333,762.83 666.5,779.5 Z"/></g>
<g><path style="opacity:1" fill="#dfa50f" d="M 707.5,639.5 C 709.173,640.343 710.34,641.676 711,643.5C 711.333,647.167 711.667,650.833 712,654.5C 713.946,657.139 714.946,660.139 715,663.5C 715.667,688.833 715.667,714.167 715,739.5C 713.989,740.337 712.822,740.67 711.5,740.5C 711.757,757.206 711.09,773.873 709.5,790.5C 708.817,790.863 708.15,791.196 707.5,791.5C 709.617,758.323 711.617,725.156 713.5,692C 713.333,684.5 713.167,677 713,669.5C 710.694,659.574 708.861,649.574 707.5,639.5 Z"/></g>
<g><path style="opacity:1" fill="#d18308" d="M 1361.5,796.5 C 1349.69,910.984 1310.02,1014.32 1242.5,1106.5C 1242.06,1106.57 1241.73,1106.4 1241.5,1106C 1250.27,1083.2 1258.93,1060.36 1267.5,1037.5C 1298.17,982.136 1320.5,923.469 1334.5,861.5C 1343.66,840.187 1352.16,818.52 1360,796.5C 1360.78,793.903 1361.28,793.903 1361.5,796.5 Z"/></g>
<g><path style="opacity:1" fill="#ebab0b" d="M 525.5,718.5 C 524.909,728.001 523.409,737.334 521,746.5C 519.667,747.167 518.667,748.167 518,749.5C 517.502,752.817 517.335,756.15 517.5,759.5C 514.489,768.701 510.989,777.701 507,786.5C 507.293,790.568 505.959,793.902 503,796.5C 501.534,803.587 498.201,809.587 493,814.5C 491.286,818.193 489.619,821.859 488,825.5C 486.287,826.878 484.953,828.545 484,830.5C 478.272,833.952 472.772,837.786 467.5,842C 465.167,842.333 462.833,842.667 460.5,843C 460.043,843.414 459.709,843.914 459.5,844.5C 453.862,845.33 448.196,845.83 442.5,846C 439.576,848.952 436.242,851.119 432.5,852.5C 434.377,849.032 437.044,846.199 440.5,844C 449.791,843.956 458.791,842.79 467.5,840.5C 467.351,839.448 467.517,838.448 468,837.5C 470.333,835.833 472.667,834.167 475,832.5C 474.383,830.905 474.716,829.572 476,828.5C 478.267,829.935 480.267,829.602 482,827.5C 486.729,820.947 491.229,814.28 495.5,807.5C 495.858,804.124 497.358,801.458 500,799.5C 502.281,795.174 503.614,790.507 504,785.5C 504.615,783.884 505.615,782.551 507,781.5C 507.275,777.369 508.608,773.702 511,770.5C 513.415,763.101 515.082,755.434 516,747.5C 517,746.833 518,746.167 519,745.5C 519.333,742.833 519.667,740.167 520,737.5C 522.973,731.949 524.307,725.949 524,719.5C 524.383,718.944 524.883,718.611 525.5,718.5 Z"/></g>
<g><path style="opacity:1" fill="#e8a40c" d="M 961.5,658.5 C 957.511,656.333 953.178,655.166 948.5,655C 947.833,654.333 947.167,653.667 946.5,653C 932.837,652.5 919.171,652.333 905.5,652.5C 905.5,653.833 905.5,655.167 905.5,656.5C 902.161,656.89 898.827,657.39 895.5,658C 893.663,659.952 891.329,660.952 888.5,661C 885.974,665.19 882.474,668.357 878,670.5C 877.563,673.772 875.73,675.439 872.5,675.5C 873.162,680.357 871.329,684.023 867,686.5C 866.484,689.251 865.317,691.584 863.5,693.5C 862.682,696.107 862.182,698.774 862,701.5C 858.975,705.571 857.641,710.238 858,715.5C 857.581,716.672 856.915,717.672 856,718.5C 855.333,737.5 855.333,756.5 856,775.5C 856.667,776.167 857.333,776.833 858,777.5C 858.333,780.833 858.667,784.167 859,787.5C 861.789,790.979 863.122,794.979 863,799.5C 866.238,805.743 869.905,811.743 874,817.5C 878.861,822.693 883.695,827.86 888.5,833C 893.635,834.887 898.969,836.22 904.5,837C 905.337,838.011 905.67,839.178 905.5,840.5C 920.504,840.667 935.504,840.5 950.5,840C 951.167,839.333 951.833,838.667 952.5,838C 956.726,836.295 961.059,834.795 965.5,833.5C 968.828,830.342 972.328,827.342 976,824.5C 976.707,822.919 977.54,821.419 978.5,820C 982.184,819.093 985.518,817.593 988.5,815.5C 982.291,820.392 976.625,825.892 971.5,832C 968.13,833.455 965.13,835.455 962.5,838C 958.432,837.707 955.098,839.041 952.5,842C 947.897,842.111 943.564,843.111 939.5,845C 923.622,846.521 908.288,844.521 893.5,839C 892.158,836.108 889.825,834.775 886.5,835C 874.363,823.562 864.53,810.396 857,795.5C 856.28,788.977 855.114,782.644 853.5,776.5C 853.333,757.164 853.5,737.83 854,718.5C 854.667,717.833 855.333,717.167 856,716.5C 856.172,712.129 856.672,707.796 857.5,703.5C 858.478,703.023 859.311,702.357 860,701.5C 860.333,698.833 860.667,696.167 861,693.5C 869.473,674.192 883.307,660.525 902.5,652.5C 913.675,647.744 925.341,646.244 937.5,648C 941.564,649.889 945.897,650.889 950.5,651C 951.973,651.71 952.64,652.876 952.5,654.5C 956.575,653.659 959.575,654.992 961.5,658.5 Z"/></g>
<g><path style="opacity:1" fill="#e8a50b" d="M 981.5,619.5 C 968.789,615.222 955.789,611.722 942.5,609C 932.167,608.333 921.833,608.333 911.5,609C 902.254,610.6 893.254,612.934 884.5,616C 878.827,619.17 873.494,622.837 868.5,627C 866.5,627.333 864.5,627.667 862.5,628C 852.416,637.081 842.583,646.581 833,656.5C 831.188,662.297 828.521,667.631 825,672.5C 824.212,676.973 822.878,681.306 821,685.5C 818.111,687.708 816.778,690.708 817,694.5C 815.615,695.551 814.615,696.884 814,698.5C 814.035,703.258 812.702,707.591 810,711.5C 808.333,738.825 808,766.159 809,793.5C 808.581,794.672 807.915,795.672 807,796.5C 805.42,805.33 802.42,813.663 798,821.5C 794.464,824.701 791.297,828.201 788.5,832C 782.272,833.782 776.272,836.116 770.5,839C 769.643,839.689 768.977,840.522 768.5,841.5C 764.541,842.327 760.541,842.827 756.5,843C 755.833,843.667 755.167,844.333 754.5,845C 747.174,845.5 739.841,845.666 732.5,845.5C 730.143,845.663 727.81,845.497 725.5,845C 721.626,843.472 717.959,841.638 714.5,839.5C 710.978,835.781 708.478,831.448 707,826.5C 706.174,814.659 706.341,802.993 707.5,791.5C 707.333,802.838 707.5,814.172 708,825.5C 709,826.5 710,827.5 711,828.5C 714.738,839.051 722.238,843.718 733.5,842.5C 739.752,843.624 746.085,843.79 752.5,843C 753.672,842.581 754.672,841.915 755.5,841C 764.721,839.729 773.388,836.729 781.5,832C 783.869,828.774 786.869,826.608 790.5,825.5C 791.264,822.213 793.097,819.546 796,817.5C 798.148,812.711 800.481,808.044 803,803.5C 803.346,800.424 804.012,797.424 805,794.5C 805.414,794.043 805.914,793.709 806.5,793.5C 806.833,790.167 807.167,786.833 807.5,783.5C 806.852,776.663 805.685,769.996 804,763.5C 803.701,752.244 803.534,741.077 803.5,730C 804.354,728.978 805.354,728.145 806.5,727.5C 807.331,720.858 807.831,714.191 808,707.5C 808.667,706.833 809.333,706.167 810,705.5C 810.116,701.01 811.45,697.01 814,693.5C 814.333,690.833 814.667,688.167 815,685.5C 819.91,678.346 823.744,670.679 826.5,662.5C 829.353,660.975 830.353,658.809 829.5,656C 839.916,645.248 850.583,634.915 861.5,625C 869.675,623.485 877.008,620.152 883.5,615C 885.167,614.667 886.833,614.333 888.5,614C 889.337,612.989 889.67,611.822 889.5,610.5C 897.831,609.798 905.831,608.298 913.5,606C 922.833,605.333 932.167,605.333 941.5,606C 951.826,608.346 962.16,611.013 972.5,614C 975.367,616.266 978.367,618.099 981.5,619.5 Z"/></g>
<g><path style="opacity:1" fill="#feab09" d="M 849.5,861.5 C 854.035,863.934 858.702,866.101 863.5,868C 865.597,869.646 867.264,871.646 868.5,874C 875.464,875.71 882.131,878.043 888.5,881C 906.392,885.074 924.725,886.574 943.5,885.5C 949.625,883.68 955.958,882.514 962.5,882C 965.5,880.333 968.5,878.667 971.5,877C 973.833,876.667 976.167,876.333 978.5,876C 979.471,874.519 980.804,873.685 982.5,873.5C 922.304,1030.09 862.304,1186.76 802.5,1343.5C 716.292,1353.59 631.958,1345.59 549.5,1319.5C 605.912,1175.58 661.579,1031.24 716.5,886.5C 713.833,885.833 711.167,885.167 708.5,884.5C 713.792,883.505 719.125,883.172 724.5,883.5C 726.743,884.812 729.41,885.478 732.5,885.5C 735.59,885.478 738.257,884.812 740.5,883.5C 748.84,883.666 757.173,883.5 765.5,883C 784.185,877.01 800.351,866.843 814,852.5C 814.346,847.987 816.512,844.654 820.5,842.5C 821.298,840.922 821.798,839.256 822,837.5C 822.689,836.643 823.522,835.977 824.5,835.5C 830.968,841.784 836.468,848.784 841,856.5C 842.833,857.667 844.333,859.167 845.5,861C 846.793,861.49 848.127,861.657 849.5,861.5 Z"/></g>
<g><path style="opacity:1" fill="#e39f0b" d="M 1021.5,809.5 C 1024.06,810.543 1026.22,812.21 1028,814.5C 1029.29,819.11 1029.62,823.777 1029,828.5C 1027.33,831.5 1025,833.833 1022,835.5C 1021.67,837.167 1021.33,838.833 1021,840.5C 1018.58,842.417 1016.74,844.75 1015.5,847.5C 1009.88,850.62 1005.88,855.12 1003.5,861C 1001.78,861.346 1000.12,861.846 998.5,862.5C 993.793,867.178 988.46,870.845 982.5,873.5C 980.804,873.685 979.471,874.519 978.5,876C 976.167,876.333 973.833,876.667 971.5,877C 968.5,878.667 965.5,880.333 962.5,882C 955.958,882.514 949.625,883.68 943.5,885.5C 943.414,884.504 943.748,883.671 944.5,883C 949.762,883.359 954.429,882.025 958.5,879C 961.833,878.667 965.167,878.333 968.5,878C 971.527,875.111 975.193,873.444 979.5,873C 980.381,872.292 981.047,871.458 981.5,870.5C 985.236,867.677 988.903,864.677 992.5,861.5C 993.386,860.675 993.719,859.675 993.5,858.5C 995.199,858.66 996.866,858.494 998.5,858C 1006.01,851.937 1013.01,845.437 1019.5,838.5C 1021.01,833.795 1023.17,829.462 1026,825.5C 1026.67,822.5 1026.67,819.5 1026,816.5C 1023.42,814.772 1021.92,812.439 1021.5,809.5 Z"/></g>
<g><path style="opacity:1" fill="#cb9609" d="M 666.5,780.5 C 666.603,793.511 666.27,806.511 665.5,819.5C 666.572,828.081 667.739,836.748 669,845.5C 672.891,852.795 677.391,859.628 682.5,866C 691.916,872.041 701.916,877.041 712.5,881C 724.177,881.666 735.844,881.5 747.5,880.5C 757.946,877.516 768.613,875.016 779.5,873C 787.87,867.814 795.87,861.981 803.5,855.5C 807.565,849.611 811.398,843.611 815,837.5C 816.011,836.663 817.178,836.33 818.5,836.5C 818.34,834.801 818.506,833.134 819,831.5C 820.376,830.295 821.542,828.962 822.5,827.5C 825.012,826.133 827.345,826.466 829.5,828.5C 833.836,834.344 838.003,840.344 842,846.5C 872.591,877.907 909.757,889.073 953.5,880C 963.065,877.45 972.399,874.283 981.5,870.5C 981.047,871.458 980.381,872.292 979.5,873C 975.193,873.444 971.527,875.111 968.5,878C 965.167,878.333 961.833,878.667 958.5,879C 954.429,882.025 949.762,883.359 944.5,883C 943.748,883.671 943.414,884.504 943.5,885.5C 924.725,886.574 906.392,885.074 888.5,881C 882.131,878.043 875.464,875.71 868.5,874C 867.264,871.646 865.597,869.646 863.5,868C 858.702,866.101 854.035,863.934 849.5,861.5C 847.498,858.666 844.998,856.333 842,854.5C 839.813,849.309 836.479,844.976 832,841.5C 830.269,837.933 828.769,834.266 827.5,830.5C 825.856,830.286 824.356,830.62 823,831.5C 811.782,852.915 795.282,868.415 773.5,878C 767.565,878.234 761.898,879.567 756.5,882C 750.984,882.173 745.651,882.673 740.5,883.5C 738.257,884.812 735.59,885.478 732.5,885.5C 729.41,885.478 726.743,884.812 724.5,883.5C 719.169,882.66 713.669,881.994 708,881.5C 705.455,879.814 702.622,878.814 699.5,878.5C 693.504,875.559 687.837,872.059 682.5,868C 667.559,854.333 661.226,837.333 663.5,817C 663.091,804.567 664.091,792.401 666.5,780.5 Z"/></g>
<g><path style="opacity:1" fill="#eea80d" d="M 849.5,861.5 C 848.127,861.657 846.793,861.49 845.5,861C 844.333,859.167 842.833,857.667 841,856.5C 836.468,848.784 830.968,841.784 824.5,835.5C 823.522,835.977 822.689,836.643 822,837.5C 821.798,839.256 821.298,840.922 820.5,842.5C 816.512,844.654 814.346,847.987 814,852.5C 800.351,866.843 784.185,877.01 765.5,883C 757.173,883.5 748.84,883.666 740.5,883.5C 745.651,882.673 750.984,882.173 756.5,882C 761.898,879.567 767.565,878.234 773.5,878C 795.282,868.415 811.782,852.915 823,831.5C 824.356,830.62 825.856,830.286 827.5,830.5C 828.769,834.266 830.269,837.933 832,841.5C 836.479,844.976 839.813,849.309 842,854.5C 844.998,856.333 847.498,858.666 849.5,861.5 Z"/></g>
<g><path style="opacity:1" fill="#feb809" d="M 132.5,935.5 C 161.52,1018.76 205.52,1092.76 264.5,1157.5C 274.439,1168.78 284.772,1179.78 295.5,1190.5C 286.389,1215.19 276.723,1239.52 266.5,1263.5C 193.025,1199.67 135.358,1123.67 93.5,1035.5C 106.795,1002.36 119.795,969.023 132.5,935.5 Z"/></g>
<g><path style="opacity:1" fill="#d18608" d="M 1267.5,1037.5 C 1258.93,1060.36 1250.27,1083.2 1241.5,1106C 1241.73,1106.4 1242.06,1106.57 1242.5,1106.5C 1202.06,1161.61 1154.06,1208.94 1098.5,1248.5C 1008.4,1311.99 908.07,1349.66 797.5,1361.5C 796.761,1361.63 796.094,1361.46 795.5,1361C 797.607,1355.07 799.94,1349.24 802.5,1343.5C 918.373,1329.8 1021.71,1287.14 1112.5,1215.5C 1175.73,1165.96 1227.39,1106.63 1267.5,1037.5 Z"/></g>
<g><path style="opacity:1" fill="#d19208" d="M 271.5,1140.5 C 281.473,1151.14 291.806,1161.47 302.5,1171.5C 362.801,1230.83 432.468,1275.83 511.5,1306.5C 509.624,1312.13 507.958,1317.79 506.5,1323.5C 445.316,1299.58 388.983,1267.42 337.5,1227C 323.333,1215 309.333,1202.83 295.5,1190.5C 284.772,1179.78 274.439,1168.78 264.5,1157.5C 267.047,1151.84 269.38,1146.18 271.5,1140.5 Z"/></g>
<g><path style="opacity:1" fill="#feb109" d="M 295.5,1190.5 C 309.333,1202.83 323.333,1215 337.5,1227C 388.983,1267.42 445.316,1299.58 506.5,1323.5C 518.888,1327.68 531.221,1332.01 543.5,1336.5C 535.111,1359.61 526.445,1382.61 517.5,1405.5C 431.07,1378.13 353.07,1335.97 283.5,1279C 277.76,1273.82 272.093,1268.65 266.5,1263.5C 276.723,1239.52 286.389,1215.19 295.5,1190.5 Z"/></g>
<g><path style="opacity:1" fill="#fea509" d="M 1098.5,1248.5 C 1099.04,1248.56 1099.38,1248.89 1099.5,1249.5C 1085.1,1286.38 1071.1,1323.38 1057.5,1360.5C 965.959,1407.72 868.626,1433.72 765.5,1438.5C 775.957,1413.46 785.624,1388.13 794.5,1362.5C 795.791,1362.74 796.791,1362.4 797.5,1361.5C 908.07,1349.66 1008.4,1311.99 1098.5,1248.5 Z"/></g>
<g><path style="opacity:1" fill="#d18c08" d="M 511.5,1306.5 C 524.024,1311.23 536.691,1315.56 549.5,1319.5C 631.958,1345.59 716.292,1353.59 802.5,1343.5C 799.94,1349.24 797.607,1355.07 795.5,1361C 796.094,1361.46 796.761,1361.63 797.5,1361.5C 796.791,1362.4 795.791,1362.74 794.5,1362.5C 709.042,1370.39 625.375,1361.72 543.5,1336.5C 531.221,1332.01 518.888,1327.68 506.5,1323.5C 507.958,1317.79 509.624,1312.13 511.5,1306.5 Z"/></g>
<g><path style="opacity:1" fill="#feab09" d="M 543.5,1336.5 C 625.375,1361.72 709.042,1370.39 794.5,1362.5C 785.624,1388.13 775.957,1413.46 765.5,1438.5C 680.626,1442.99 597.96,1431.99 517.5,1405.5C 526.445,1382.61 535.111,1359.61 543.5,1336.5 Z"/></g>
</svg>
