<?xml version="1.0" standalone="no"?>
<!DOCTYPE svg PUBLIC "-//W3C//DTD SVG 20010904//EN"
 "http://www.w3.org/TR/2001/REC-SVG-20010904/DTD/svg10.dtd">
<svg version="1.0" xmlns="http://www.w3.org/2000/svg"
 width="3464.000000pt" height="3464.000000pt" viewBox="0 0 3464.000000 3464.000000"
 preserveAspectRatio="xMidYMid meet">

<g transform="translate(0.000000,3464.000000) scale(0.100000,-0.100000)"
fill="#000000" stroke="none">
<path d="M16775 32823 c-315 -10 -926 -56 -1250 -94 -2159 -254 -4198 -937
-6059 -2032 -1934 -1137 -3595 -2677 -4892 -4537 -915 -1311 -1655 -2840
-2107 -4355 -356 -1190 -545 -2255 -634 -3565 -25 -369 -25 -1474 0 -1845 52
-754 128 -1362 253 -2015 473 -2460 1547 -4785 3118 -6745 1080 -1348 2398
-2527 3851 -3442 2490 -1568 5317 -2383 8265 -2383 995 0 1950 89 2905 270
3361 639 6409 2374 8701 4950 1436 1615 2533 3545 3184 5600 386 1221 606
2411 697 3770 25 380 25 1460 0 1840 -88 1318 -294 2458 -658 3643 -903 2939
-2683 5566 -5089 7508 -2502 2020 -5535 3203 -8745 3409 -419 27 -1097 37
-1540 23z m1090 -513 c1398 -59 2607 -264 3900 -661 766 -236 1474 -520 2215
-890 822 -411 1438 -784 2160 -1308 2148 -1561 3869 -3702 4932 -6136 953
-2182 1366 -4537 1218 -6950 -149 -2428 -901 -4798 -2188 -6895 -473 -770
-1022 -1503 -1633 -2180 -1038 -1150 -2200 -2102 -3521 -2887 -574 -341 -1271
-688 -1928 -960 -1605 -665 -3373 -1048 -5145 -1113 -2005 -73 -4013 255
-5866 958 -494 188 -869 354 -1399 618 -578 289 -952 503 -1495 857 -1192 777
-2300 1756 -3235 2857 -1338 1577 -2337 3411 -2924 5369 -303 1008 -486 1964
-581 3026 -64 725 -71 1591 -19 2345 119 1732 526 3389 1222 4980 900 2057
2278 3910 4002 5385 659 563 1390 1086 2124 1519 698 412 1590 841 2326 1116
1519 569 3055 879 4710 949 277 12 854 12 1125 1z"/>
</g>
</svg>
